<svg xmlns="http://www.w3.org/2000/svg" width="720" height="600" viewBox="0 0 720 600"><title>Learning that people can put to use</title><rect width="720" height="600" fill="#091b2b"/><path d="M40 60h640M40 558h640" stroke="#294352"/><text x="44" y="42" font-family="Arial, sans-serif" font-size="11" fill="#7899a9">AI VISION / COMMUNITY</text><path d="M213 220 360 355 527 200M360 355 220 477M360 355 540 470" stroke="#416775" stroke-width="2"/><rect x="86" y="114" width="230" height="130" rx="10" fill="#12293b" stroke="#36586b"/><text x="110" y="153" font-family="Arial, sans-serif" font-size="19" fill="#e8f2f3">Ask a question</text><rect x="421" y="105" width="230" height="130" rx="10" fill="#12293b" stroke="#36586b"/><text x="445" y="144" font-family="Arial, sans-serif" font-size="19" fill="#e8f2f3">Try it together</text><rect x="243" y="295" width="238" height="124" rx="10" fill="#12293b" stroke="#36586b"/><text x="267" y="334" font-family="Arial, sans-serif" font-size="19" fill="#e8f2f3">Build confidence</text><rect x="98" y="462" width="230" height="90" rx="10" fill="#12293b" stroke="#36586b"/><text x="122" y="501" font-family="Arial, sans-serif" font-size="19" fill="#e8f2f3">Apply for a role</text><rect x="420" y="462" width="230" height="90" rx="10" fill="#12293b" stroke="#36586b"/><text x="444" y="501" font-family="Arial, sans-serif" font-size="19" fill="#e8f2f3">Use it at work</text><text x="44" y="584" font-family="Arial, sans-serif" font-size="13" fill="#9dbbc9">Learning that people can put to use</text></svg>
